<?xml version="1.0" encoding="UTF-8" standalone="no"?>
<!-- Created with Inkscape (http://www.inkscape.org/) -->

<svg
   width="256"
   height="256"
   viewBox="0 0 67.733334 67.733334"
   version="1.1"
   id="svg1"
   inkscape:version="1.4.1 (93de688d07, 2025-03-30)"
   sodipodi:docname="icon.svg"
   xml:space="preserve"
   inkscape:export-filename="icon_256px.png"
   inkscape:export-xdpi="96"
   inkscape:export-ydpi="96"
   xmlns:inkscape="http://www.inkscape.org/namespaces/inkscape"
   xmlns:sodipodi="http://sodipodi.sourceforge.net/DTD/sodipodi-0.dtd"
   xmlns="http://www.w3.org/2000/svg"
   xmlns:svg="http://www.w3.org/2000/svg"
   xmlns:rdf="http://www.w3.org/1999/02/22-rdf-syntax-ns#"
   xmlns:cc="http://creativecommons.org/ns#"><sodipodi:namedview
     id="namedview1"
     pagecolor="#ffffff"
     bordercolor="#000000"
     borderopacity="0.25"
     inkscape:showpageshadow="2"
     inkscape:pageopacity="0.0"
     inkscape:pagecheckerboard="0"
     inkscape:deskcolor="#d1d1d1"
     inkscape:document-units="px"
     inkscape:zoom="2.8284271"
     inkscape:cx="150.61375"
     inkscape:cy="132.40575"
     inkscape:window-width="1920"
     inkscape:window-height="1008"
     inkscape:window-x="0"
     inkscape:window-y="0"
     inkscape:window-maximized="1"
     inkscape:current-layer="layer1"
     showgrid="true"><inkscape:grid
       id="grid2"
       units="px"
       originx="0"
       originy="0"
       spacingx="0.26458334"
       spacingy="0.26458334"
       empcolor="#0099e5"
       empopacity="0.30196078"
       color="#0099e5"
       opacity="0.14901961"
       empspacing="4"
       enabled="true"
       visible="true" /></sodipodi:namedview><defs
     id="defs1"><inkscape:path-effect
       effect="copy_rotate"
       starting_point="0,0"
       origin="43,46.00443"
       id="path-effect18"
       is_visible="true"
       lpeversion="1.2"
       lpesatellites=""
       method="normal"
       num_copies="6"
       starting_angle="0.6"
       rotation_angle="60"
       gap="4"
       copies_to_360="true"
       mirror_copies="false"
       split_items="false"
       link_styles="false" /><inkscape:path-effect
       effect="curvestitching"
       id="path-effect17"
       is_visible="true"
       lpeversion="1"
       count="5"
       startpoint_edge_variation="0;1"
       startpoint_spacing_variation="0;1"
       endpoint_edge_variation="0;1"
       endpoint_spacing_variation="0;1"
       strokepath="m 33.866668,46.004429 h 2e-6"
       prop_scale="1"
       scale_y_rel="false" /><inkscape:path-effect
       effect="copy_rotate"
       starting_point="0,0"
       origin="33.866668,46.00443"
       id="path-effect16"
       is_visible="true"
       lpeversion="1.2"
       lpesatellites=""
       method="normal"
       num_copies="3"
       starting_angle="0"
       rotation_angle="120"
       gap="-0.01"
       copies_to_360="true"
       mirror_copies="false"
       split_items="false"
       link_styles="false" /><inkscape:path-effect
       effect="fillet_chamfer"
       id="path-effect13"
       is_visible="true"
       lpeversion="1"
       nodesatellites_param="F,0,1,1,0,0.35993995,0,1 @ F,0,0,1,0,0.35993995,0,1 @ F,0,1,1,0,0.35993995,0,1"
       radius="0"
       unit="px"
       method="auto"
       mode="F"
       chamfer_steps="1"
       flexible="false"
       use_knot_distance="true"
       apply_no_radius="true"
       apply_with_radius="true"
       only_selected="false"
       hide_knots="false" /><inkscape:path-effect
       effect="fillet_chamfer"
       id="path-effect12"
       is_visible="true"
       lpeversion="1"
       nodesatellites_param="F,0,1,1,0,0.52916897,0,1 @ F,0,1,1,0,0.52916897,0,1 @ F,0,1,1,0,0.52916897,0,1 @ F,0,0,1,0,0.52916897,0,1 @ F,0,1,1,0,0.52916897,0,1 @ F,0,1,1,0,0.52916897,0,1 @ F,0,1,1,0,0.52916897,0,1 @ F,0,1,1,0,0.52916897,0,1"
       radius="0"
       unit="px"
       method="auto"
       mode="F"
       chamfer_steps="1"
       flexible="false"
       use_knot_distance="true"
       apply_no_radius="true"
       apply_with_radius="true"
       only_selected="false"
       hide_knots="false" /><inkscape:path-effect
       effect="fill_between_many"
       id="path-effect11"
       is_visible="true"
       lpeversion="1.2"
       linkedpaths=""
       method="bsplinespiro"
       join="true"
       close="true"
       autoreverse="true" /><inkscape:path-effect
       effect="bounding_box"
       linkedpath=""
       id="path-effect10"
       is_visible="true"
       lpeversion="1.3"
       visualbounds="true" /></defs><g
     inkscape:label="Layer 1"
     inkscape:groupmode="layer"
     id="layer1"><g
       id="g24"
       transform="matrix(1.0676107,0,0,1.059022,-2.2897196,-1.9894006)"
       style="stroke-width:0.940462"><g
         id="g9"
         transform="matrix(1,0,0,0.83317423,3.1750012,3.3555996)"
         style="stroke-width:1.03032"><rect
           style="fill:#ff0033;fill-opacity:1;stroke:none;stroke-width:4.36169;stroke-linecap:round;stroke-linejoin:round;stroke-dasharray:none;stroke-dashoffset:0;stroke-opacity:1"
           id="rect2"
           width="25.4"
           height="25.4"
           x="1.0583334"
           y="1.0583344"
           ry="5.5908189" /><path
           id="path2"
           style="fill:#ffffff;stroke-width:4.91787;stroke-linecap:round;stroke-linejoin:round"
           inkscape:transform-center-x="-1.4111066"
           inkscape:transform-center-y="-1.5690747e-06"
           transform="matrix(0.89872891,0,0,0.87524061,-16.037018,3.712146)"
           d="m 38.728997,11.655862 -8.797279,5.079111 a 0.20781143,0.20781143 30 0 1 -0.311717,-0.17997 V 6.3967809 A 0.20781143,0.20781143 150 0 1 29.931718,6.216811 l 8.797279,5.079111 a 0.20781142,0.20781142 90 0 1 0,0.35994 z"
           sodipodi:nodetypes="cccc"
           inkscape:path-effect="#path-effect13"
           inkscape:original-d="m 39.040714,11.475892 -9.420713,5.439051 V 6.036841 Z" /></g><g
         id="g12"
         transform="translate(10.583336,1.060355)"
         style="stroke:#ffffff;stroke-width:0.622076;stroke-dasharray:none;stroke-opacity:1"><path
           d="M 35.746742,3.6463303 33.044926,9.051678 a 0.85548313,0.85548313 148.29711 0 1 -0.76576,0.4729965 l -2.116663,-0.00135 A 0.52883241,0.52883241 135.01823 0 0 29.633334,10.05216 v 7.408329 a 0.52950241,0.52950241 45.018046 0 0 0.529169,0.529502 l 2.116663,0.0013 a 0.85693855,0.85693855 31.731878 0 1 0.765881,0.473606 l 2.701574,5.401432 a 0.85633511,0.85633511 31.713832 0 0 0.765881,0.473273 h 1.058329 A 0.52916897,0.52916897 135 0 0 38.1,23.810467 V 3.7021581 a 0.52916697,0.52916697 44.999892 0 0 -0.529169,-0.529167 l -1.058329,4e-6 a 0.85609535,0.85609535 148.27878 0 0 -0.76576,0.4733352 z"
           style="fill:#000000;fill-opacity:1;stroke:#ffffff;stroke-width:0.622076;stroke-linecap:round;stroke-linejoin:round;stroke-dasharray:none;stroke-opacity:1"
           id="path9"
           sodipodi:nodetypes="ccccccccc" /><path
           style="baseline-shift:baseline;display:inline;overflow:visible;opacity:1;stroke:#ffffff;stroke-width:0.622076;stroke-linecap:round;stroke-linejoin:round;stroke-dasharray:none;stroke-opacity:1;enable-background:accumulate;stop-color:#000000;stop-opacity:1"
           d="m 40.800781,8.578125 a 1.0583349,1.0583349 0 0 0 -0.472656,1.4199219 c 1.284895,2.5697951 1.284895,4.9497371 0,7.5195311 a 1.0583349,1.0583349 0 0 0 0.472656,1.419922 1.0583349,1.0583349 0 0 0 1.419922,-0.472656 c 1.537323,-3.07465 1.537323,-6.339413 0,-9.4140627 A 1.0583349,1.0583349 0 0 0 40.800781,8.578125 Z"
           id="path10" /><path
           style="baseline-shift:baseline;display:inline;overflow:visible;opacity:1;stroke:#ffffff;stroke-width:0.622076;stroke-linecap:round;stroke-linejoin:round;stroke-dasharray:none;stroke-opacity:1;enable-background:accumulate;stop-color:#000000;stop-opacity:1"
           d="M 44.728516,5.3359375 A 1.0583349,1.0583349 0 0 0 43.923828,5.4375 1.0583349,1.0583349 0 0 0 43.53125,6.8828125 c 2.672891,4.6724395 2.669803,9.0865355 0,13.7597655 a 1.0583349,1.0583349 0 0 0 0.394531,1.443359 1.0583349,1.0583349 0 0 0 1.44336,-0.394531 c 2.970901,-5.200272 2.975293,-10.660264 0,-15.8613279 A 1.0583349,1.0583349 0 0 0 44.728516,5.3359375 Z"
           id="path10-0" /><path
           style="baseline-shift:baseline;display:inline;overflow:visible;opacity:1;stroke:#ffffff;stroke-width:0.622076;stroke-linecap:round;stroke-linejoin:round;stroke-dasharray:none;stroke-opacity:1;enable-background:accumulate;stop-color:#000000;stop-opacity:1"
           d="m 48.28125,2.1992188 a 1.0583301,1.0583301 0 0 0 -0.589844,1.375 c 2.733479,6.8271882 2.730168,13.5470382 0,20.3750002 a 1.0583301,1.0583301 0 0 0 0.589844,1.375 1.0583301,1.0583301 0 0 0 1.375,-0.589844 c 2.910536,-7.27905 2.914706,-14.667441 0,-21.9472656 a 1.0583301,1.0583301 0 0 0 -1.375,-0.5878906 z"
           id="path10-0-6" /></g><path
         style="baseline-shift:baseline;display:inline;overflow:visible;opacity:1;stroke:#ffffff;stroke-width:0.622076;stroke-linecap:round;stroke-linejoin:round;stroke-dasharray:none;stroke-opacity:1;enable-background:accumulate;stop-color:#000000;stop-opacity:1"
         d="m 21.166016,32.279297 a 1.322915,1.322915 0 0 0 -1.322266,1.322265 1.322915,1.322915 0 0 0 1.322266,1.324219 h 25.40039 a 1.322915,1.322915 0 0 0 1.322266,-1.324219 1.322915,1.322915 0 0 0 -1.322266,-1.322265 z"
         id="path13" /><path
         style="baseline-shift:baseline;display:inline;overflow:visible;opacity:1;stroke:#ffffff;stroke-width:0.622076;stroke-linecap:round;stroke-linejoin:round;stroke-dasharray:none;stroke-opacity:1;enable-background:accumulate;stop-color:#000000;stop-opacity:1"
         d="M 4.7617187,58.208984 A 1.32291,1.32291 0 0 0 3.4394531,59.53125 1.32291,1.32291 0 0 0 4.7617187,60.853516 H 62.970703 a 1.32291,1.32291 0 0 0 1.322266,-1.322266 1.32291,1.32291 0 0 0 -1.322266,-1.322266 z"
         id="path13-7" /><circle
         style="fill:#ffffff;fill-opacity:1;stroke:#666666;stroke-width:1.49298;stroke-linecap:butt;stroke-linejoin:round;stroke-dasharray:none;stroke-dashoffset:0;stroke-opacity:1;paint-order:normal"
         id="path14"
         cx="38.893753"
         cy="33.602085"
         r="3.9687502" /><circle
         style="fill:#ffffff;fill-opacity:1;stroke:#666666;stroke-width:1.49298;stroke-linecap:butt;stroke-linejoin:round;stroke-dasharray:none;stroke-dashoffset:0;stroke-opacity:1;paint-order:normal"
         id="path14-3"
         cx="50.800003"
         cy="59.795837"
         r="3.9687502" /><path
         style="fill:#ffcc00;fill-opacity:1;stroke:#ffcc00;stroke-width:1.49298;stroke-linecap:round;stroke-linejoin:round;stroke-dasharray:none;stroke-dashoffset:0;stroke-opacity:1;paint-order:normal"
         d="m 33.866667,39.158336 2e-6,15.875001"
         id="path18"
         inkscape:transform-center-x="0.00026337848"
         inkscape:transform-center-y="21.695314" /><path
         style="fill:#ffcc00;fill-opacity:1;stroke:#ffcc00;stroke-width:1.49298;stroke-linecap:round;stroke-linejoin:round;stroke-dasharray:none;stroke-dashoffset:0;stroke-opacity:1;paint-order:normal"
         d="M 47.133363,39.158336 62.44167,55.033337"
         id="path20"
         inkscape:transform-center-x="-20.920585"
         inkscape:transform-center-y="21.695314" /><path
         style="fill:#ffcc00;fill-opacity:1;stroke:#ffcc00;stroke-width:1.49298;stroke-linecap:round;stroke-linejoin:round;stroke-dasharray:none;stroke-dashoffset:0;stroke-opacity:1;paint-order:normal"
         d="M 20.599971,39.158336 5.291667,55.033337"
         id="path21"
         inkscape:transform-center-x="20.921112"
         inkscape:transform-center-y="21.695314" /><path
         style="fill:#ffcc00;fill-opacity:1;stroke:#ffcc00;stroke-width:1.49298;stroke-linecap:round;stroke-linejoin:round;stroke-dasharray:none;stroke-dashoffset:0;stroke-opacity:1;paint-order:normal"
         d="M 27.970357,39.158336 21.166668,55.033337"
         id="path22"
         inkscape:transform-center-x="9.2984189"
         inkscape:transform-center-y="21.695314" /><path
         style="fill:#ffcc00;fill-opacity:1;stroke:#ffcc00;stroke-width:1.49298;stroke-linecap:round;stroke-linejoin:round;stroke-dasharray:none;stroke-dashoffset:0;stroke-opacity:1;paint-order:normal"
         d="m 40.216669,40.21667 7.672918,12.716293"
         id="path23"
         inkscape:transform-center-x="-10.485797"
         inkscape:transform-center-y="17.378529" /></g></g><metadata
     id="metadata1"><rdf:RDF><cc:Work
         rdf:about="" /></rdf:RDF></metadata></svg>
